<?xml version="1.0" encoding="UTF-8"?>
<svg id="Layer_1" data-name="Layer 1" xmlns="http://www.w3.org/2000/svg" viewBox="0 0 855.64 745.68">
  <defs>
    <style>
      .cls-1 {
        fill: #f05065;
      }

      .cls-2 {
        fill: #363252;
      }
    </style>
  </defs>
  <path class="cls-2" d="m596.74,638.78h-210.3c-13.52,0-25.75,8.01-31.16,20.4l-16.93,38.8c-5.41,12.39-17.64,20.4-31.16,20.4h-122.92c-24.78,0-41.23-25.66-30.9-48.17L439.35,47.1c5.54-12.08,17.61-19.82,30.9-19.82h42.37c13.28,0,25.34,7.73,30.89,19.8l286.36,623.11c10.35,22.52-6.1,48.19-30.89,48.19h-123.2c-13.58,0-25.85-8.08-31.22-20.54l-16.6-38.53c-5.37-12.47-17.65-20.54-31.22-20.54Zm-17.74-181.18l-54.32-116.57c-12.59-27.01-50.92-27.22-63.8-.35l-54.65,114.01c-11.45,23.89,5.96,51.54,32.45,51.54h109.33c25.01,0,41.55-25.97,30.99-48.63Z"/>
  <path class="cls-1" d="m55.79,558.29l3.28-3.22c27.86-27.32,70.88-32.7,104.11-12.26,28.64,17.62,63.68,27.47,100.36,27.47,40.93,0,80.95-14.84,80.95-44.52,0-37.33-74.21-70.16-145.27-101.64C107.49,384.53,28.78,324.27,28.78,214.98,28.78,89.5,147.97,0,285.59,0c63.21,0,118.49,17.03,159.55,44.96,44.61,30.35,49.63,94.27,10.78,131.71l-1.38,1.33c-26.18,25.23-65.33,30.81-97.88,14.61-23.05-11.47-49.3-16.76-68.82-16.76-39.58,0-67.91,20.24-67.91,44.97,0,33.28,51.27,44.08,129.53,76.91,113.34,47.67,188.44,116.93,188.44,223.97,0,138.07-128.63,223.97-273.9,223.97-75.13,0-145.98-20.91-197.21-56.43-43.96-30.48-49.19-93.51-11-130.97Z"/>
  <path class="cls-2" d="m356.98,232.9c3.4,1.62,6.83,3.17,10.26,4.71.21.09.36.16.54.24.2.08.38.15.54.22.9.36,1.79.73,2.69,1.08,6.31,2.49,12.7,4.77,19.17,6.8,11.27,3.54,22.78,6.32,34.42,8.33,1.84.32,3.69.6,5.53.9.14.02.59.08,1.08.15,1.56.15,6.4.68,7.48.78,6.02.56,12.05.94,18.09,1.18,29.76,1.19,59.82-.11,89.5-2.33,14.54-1.09,29.04-2.56,43.5-4.38.38-.05.67-.08.92-.11.16-.02.29-.04.48-.07,1.66-.23,3.32-.47,4.98-.71,3.87-.57,7.74-1.17,11.6-1.79,6.63-1.07,13.24-2.24,19.84-3.48.57-.11,1.14-.22,1.7-.33,2.47-.48-83.12-192.38-83.12-192.38-7.4-16.09-23.49-26.41-41.2-26.41h-26.21c-18.7,0-35.69,10.89-43.49,27.89,0,0-42.61,92.57-65.18,144.79-8.75,20.25-13.66,34.68-13.14,34.93h0Z"/>
</svg>